<?xml version="1.0" encoding="UTF-8" standalone="no"?>
<svg
   viewBox="0 0 448 512"
   version="1.1"
   id="svg4"
   sodipodi:docname="airbnb-brands.svg"
   inkscape:version="1.2.1 (9c6d41e410, 2022-07-14)"
   xmlns:inkscape="http://www.inkscape.org/namespaces/inkscape"
   xmlns:sodipodi="http://sodipodi.sourceforge.net/DTD/sodipodi-0.dtd"
   xmlns="http://www.w3.org/2000/svg"
   xmlns:svg="http://www.w3.org/2000/svg">
  <defs
     id="defs8" />
  <sodipodi:namedview
     id="namedview6"
     pagecolor="#ffffff"
     bordercolor="#000000"
     borderopacity="0.25"
     inkscape:showpageshadow="2"
     inkscape:pageopacity="0.0"
     inkscape:pagecheckerboard="0"
     inkscape:deskcolor="#d1d1d1"
     showgrid="false"
     inkscape:zoom="2.0585937"
     inkscape:cx="238.26945"
     inkscape:cy="292.91841"
     inkscape:window-width="1366"
     inkscape:window-height="699"
     inkscape:window-x="0"
     inkscape:window-y="32"
     inkscape:window-maximized="1"
     inkscape:current-layer="svg4" />
  <!--! Font Awesome Pro 6.1.2 by @fontawesome - https://fontawesome.com License - https://fontawesome.com/license (Commercial License) Copyright 2022 Fonticons, Inc. -->
  <path
     d="M224 373.12c-25.24-31.67-40.08-59.43-45-83.18-22.55-88 112.61-88 90.06 0-5.45 24.25-20.29 52-45 83.18zm138.15 73.23c-42.06 18.31-83.67-10.88-119.3-50.47 103.9-130.07 46.11-200-18.85-200-54.92 0-85.16 46.51-73.28 100.5 6.93 29.19 25.23 62.39 54.43 99.5-32.53 36.05-60.55 52.69-85.15 54.92-50 7.43-89.11-41.06-71.3-91.09 15.1-39.16 111.72-231.18 115.87-241.56 15.75-30.07 25.56-57.4 59.38-57.4 32.34 0 43.4 25.94 60.37 59.87 36 70.62 89.35 177.48 114.84 239.09 13.17 33.07-1.37 71.29-37.01 86.64zm47-136.12C280.27 35.93 273.13 32 224 32c-45.52 0-64.87 31.67-84.66 72.79C33.18 317.1 22.89 347.19 22 349.81-3.22 419.14 48.74 480 111.63 480c21.71 0 60.61-6.06 112.37-62.4 58.68 63.78 101.26 62.4 112.37 62.4 62.89.05 114.85-60.86 89.61-130.19.02-3.89-16.82-38.9-16.82-39.58z"
     id="path2" />
  <path
     style="fill:#6c757d;stroke-width:0.971537"
     d="m 102.49715,478.97591 c -33.07901,-3.2918 -62.424389,-23.534 -76.772347,-52.95693 -7.257983,-14.88374 -9.127236,-23.24048 -9.127236,-40.80456 0,-23.36649 3.109634,-32.37195 33.212232,-96.18216 C 82.324613,220.10873 148.84264,86.162015 156.5335,74.123745 c 10.87187,-17.017398 22.055,-28.018428 34.85929,-34.291659 11.39711,-5.583806 18.87906,-7.098816 34.97533,-7.082101 15.15192,0.01573 22.76448,1.463756 30.93638,5.884554 14.11191,7.634201 30.29989,29.07721 52.61249,69.691841 17.27032,31.4364 82.11171,165.02277 105.5829,217.52212 13.3522,29.86562 17.10084,44.93408 16.07077,64.59983 -1.78651,34.10724 -21.90031,63.9235 -53.48749,79.28865 -10.63769,5.17458 -21.03601,7.99954 -34.07596,9.25761 -32.54375,3.13973 -65.26501,-11.01183 -101.72705,-43.99576 -5.6757,-5.1343 -12.01498,-11.28519 -14.08729,-13.66864 l -3.76782,-4.33356 -11.17268,10.84497 c -39.49134,38.33301 -74.93852,54.69854 -110.75522,51.13431 z M 352.5034,450.18853 c 24.01361,-6.07151 43.28165,-24.99932 49.82347,-48.94375 1.20244,-4.40116 1.71384,-9.701 1.68744,-17.48766 -0.0334,-9.84964 -0.38975,-12.2081 -3.00948,-19.91651 -3.67198,-10.8046 -19.55053,-46.50352 -38.6757,-86.95256 C 340.42311,230.55758 274.41093,98.856909 267.97608,88.644608 257.78704,72.474268 246.76835,63.638788 233.76493,61.211961 218.31787,58.329077 203.65213,62.134392 192.5814,71.897834 185.46927,78.17013 177.40899,91.338076 163.74139,119.01328 87.488274,273.41641 53.913674,343.56105 47.36517,362.14851 c -2.430154,6.89782 -2.650839,8.7294 -2.662143,22.09437 -0.01171,13.84087 0.138277,14.99372 2.985144,22.94552 7.839364,21.89674 26.014993,38.3653 47.655787,43.17992 8.910782,1.98246 26.464432,1.48663 35.753792,-1.00991 13.12458,-3.52727 25.85282,-10.13456 40.05174,-20.79102 8.61144,-6.46298 34.33059,-30.69841 34.33059,-32.35006 0,-0.49254 -3.2028,-5.13705 -7.11733,-10.32113 -25.62449,-33.93502 -42.42504,-66.77448 -47.84429,-93.51962 -2.23464,-11.0284 -1.50233,-33.43868 1.41092,-43.17734 7.52216,-25.14561 24.37545,-42.14478 49.2049,-49.63079 7.66676,-2.3115 10.35741,-2.63015 22.31923,-2.64313 15.94124,-0.0173 24.40369,1.82164 36.91841,8.02262 18.92584,9.37764 31.10678,24.46288 36.51627,45.22284 2.61822,10.04791 2.82816,27.44316 0.48073,39.83302 -5.24115,27.66307 -21.33039,60.54107 -45.47812,92.93354 -7.29713,9.78857 -9.2505,13.04475 -8.56614,14.27933 1.27406,2.29838 19.7813,20.29296 27.38461,26.62606 18.53573,15.43911 38.73388,25.60977 55.39323,27.89292 7.53641,1.03285 18.8096,0.37223 26.4009,-1.54712 z M 230.57661,365.5126 c 14.05932,-18.46909 27.61362,-41.8069 33.7511,-58.11268 6.5862,-17.49791 9.07896,-36.96223 6.27548,-49.00114 -4.23382,-18.18118 -19.15452,-31.33137 -38.79837,-34.19449 -25.24897,-3.68007 -48.09528,10.20219 -53.98158,32.80121 -5.69298,21.85684 4.0279,55.62164 25.4434,88.3759 7.95128,12.1612 19.55803,27.68881 20.69716,27.68881 0.47283,0 3.4486,-3.40092 6.61281,-7.55761 z"
     id="path860" />
  <path
     style="fill:#6c757d;stroke-width:0.0429363"
     d="m 149.03382,286.54597 c -0.0239,-0.0766 -0.17711,-1.38414 -0.30055,-2.56545 -0.18676,-1.78736 -0.33002,-3.66254 -0.45595,-5.96814 -0.0729,-1.33556 -0.10075,-6.31367 -0.0439,-7.85734 0.19303,-5.24019 0.7256,-9.89949 1.67844,-14.6842 0.25788,-1.29491 0.68387,-3.22374 0.8179,-3.70326 l 0.045,-0.16101 h 0.25849 c 0.2261,0 0.25568,0.009 0.23607,0.0751 -0.0921,0.30849 -0.48713,2.42383 -0.6876,3.68179 -0.98424,6.17601 -1.51655,14.93451 -1.3637,22.43802 0.066,3.24188 0.18503,5.7328 0.37413,7.83205 0.034,0.37784 0.062,0.74978 0.062,0.82652 l 1.8e-4,0.13955 h -0.3019 c -0.20396,0 -0.30735,-0.0174 -0.31867,-0.0537 z"
     id="path862" />
</svg>
