<?xml version="1.0" encoding="UTF-8" standalone="no"?>
<svg
   width="24"
   height="24"
   viewBox="0 0 24 24"
   version="1.1"
   id="svg4"
   sodipodi:docname="facebook-1.svg"
   inkscape:version="1.2.1 (9c6d41e410, 2022-07-14)"
   xmlns:inkscape="http://www.inkscape.org/namespaces/inkscape"
   xmlns:sodipodi="http://sodipodi.sourceforge.net/DTD/sodipodi-0.dtd"
   xmlns="http://www.w3.org/2000/svg"
   xmlns:svg="http://www.w3.org/2000/svg">
  <defs
     id="defs8" />
  <sodipodi:namedview
     id="namedview6"
     pagecolor="#ffffff"
     bordercolor="#000000"
     borderopacity="0.25"
     inkscape:showpageshadow="2"
     inkscape:pageopacity="0.0"
     inkscape:pagecheckerboard="0"
     inkscape:deskcolor="#d1d1d1"
     showgrid="false"
     inkscape:zoom="19.583333"
     inkscape:cx="12.076596"
     inkscape:cy="12"
     inkscape:window-width="1366"
     inkscape:window-height="699"
     inkscape:window-x="0"
     inkscape:window-y="0"
     inkscape:window-maximized="1"
     inkscape:current-layer="svg4" />
  <path
     d="M9 8h-3v4h3v12h5v-12h3.642l.358-4h-4v-1.667c0-.955.192-1.333 1.115-1.333h2.885v-5h-3.808c-3.596 0-5.192 1.583-5.192 4.615v3.385z"
     id="path2" />
  <path
     style="fill:#f8f9fa;stroke-width:0.0510638;fill-opacity:1"
     d="M 9.012766,18 V 12 H 7.506383 6 V 10.008511 8.0170213 H 7.506383 9.012766 V 6.2096655 c 0,-0.9940452 0.023889,-2.040148 0.053087,-2.3246724 0.2279883,-2.2216908 1.444989,-3.41785868 3.853296,-3.78733585 0.196596,-0.03016128 1.420213,-0.06739618 2.719149,-0.08274421 L 18,-0.01299247 V 2.4653838 4.9437599 l -1.67234,0.018487 c -1.627368,0.01799 -1.678293,0.021637 -1.893663,0.1356075 -0.166099,0.087897 -0.248646,0.1768341 -0.33083,0.3564409 -0.09956,0.2175886 -0.111205,0.3448146 -0.128208,1.4010234 l -0.0187,1.1617022 h 1.99634 c 1.866607,0 1.996446,0.00581 1.997982,0.089362 9.04e-4,0.049149 -0.07338,0.9453191 -0.165077,1.9914891 L 17.618781,12 h -1.826412 -1.826412 v 6 6 H 11.489362 9.012766 Z"
     id="path3165" />
</svg>
