<?xml version="1.0" encoding="UTF-8" standalone="no"?>
<svg
   width="24"
   height="24"
   viewBox="0 0 24 24"
   version="1.1"
   id="svg135"
   sodipodi:docname="twitter-1.svg"
   inkscape:version="1.2.1 (9c6d41e410, 2022-07-14)"
   xmlns:inkscape="http://www.inkscape.org/namespaces/inkscape"
   xmlns:sodipodi="http://sodipodi.sourceforge.net/DTD/sodipodi-0.dtd"
   xmlns="http://www.w3.org/2000/svg"
   xmlns:svg="http://www.w3.org/2000/svg">
  <defs
     id="defs139" />
  <sodipodi:namedview
     id="namedview137"
     pagecolor="#ffffff"
     bordercolor="#000000"
     borderopacity="0.25"
     inkscape:showpageshadow="2"
     inkscape:pageopacity="0.0"
     inkscape:pagecheckerboard="0"
     inkscape:deskcolor="#d1d1d1"
     showgrid="false"
     inkscape:zoom="19.583333"
     inkscape:cx="12.076596"
     inkscape:cy="12"
     inkscape:window-width="1366"
     inkscape:window-height="699"
     inkscape:window-x="0"
     inkscape:window-y="0"
     inkscape:window-maximized="1"
     inkscape:current-layer="svg135" />
  <path
     d="M24 4.557c-.883.392-1.832.656-2.828.775 1.017-.609 1.798-1.574 2.165-2.724-.951.564-2.005.974-3.127 1.195-.897-.957-2.178-1.555-3.594-1.555-3.179 0-5.515 2.966-4.797 6.045-4.091-.205-7.719-2.165-10.148-5.144-1.29 2.213-.669 5.108 1.523 6.574-.806-.026-1.566-.247-2.229-.616-.054 2.281 1.581 4.415 3.949 4.89-.693.188-1.452.232-2.224.084.626 1.956 2.444 3.379 4.6 3.419-2.07 1.623-4.678 2.348-7.29 2.04 2.179 1.397 4.768 2.212 7.548 2.212 9.142 0 14.307-7.721 13.995-14.646.962-.695 1.797-1.562 2.457-2.549z"
     id="path133" />
  <path
     style="fill:#f8f9fa;stroke-width:0.0510638;fill-opacity:1"
     d="M 7.1489362,21.71594 C 4.8991535,21.651401 2.582384,21.003171 0.67324269,19.904047 L 0.20425532,19.634043 1.3276596,19.602325 c 1.743633,-0.04923 2.8214634,-0.30149 4.2407862,-0.992538 0.5561704,-0.270792 1.5719842,-0.905292 1.7039918,-1.064352 0.060061,-0.07237 0.045344,-0.08165 -0.1300151,-0.08199 C 6.52111,17.462234 5.5166681,17.155761 4.8642067,16.768326 4.3206967,16.445585 3.5024906,15.638646 3.2170213,15.143822 3.0543212,14.861803 2.7319149,14.182574 2.7319149,14.121826 c 0,-0.007 0.1321277,0.0089 0.293617,0.0353 0.4845767,0.0793 1.9021277,-0.04074 1.9021277,-0.161078 0,-0.01782 -0.1256931,-0.06162 -0.2793179,-0.09734 C 3.9296244,13.731614 3.0284081,13.217533 2.4630015,12.652127 1.6211524,11.810277 1.1000805,10.707193 1.0111435,9.5786114 0.98458866,9.2416381 0.99128819,9.1794357 1.051341,9.2053951 1.470889,9.3867564 1.97067,9.5629057 2.2324612,9.6216843 2.6669502,9.7192381 3.1915681,9.7729884 3.1911404,9.7199076 3.1909464,9.6960858 3.1109168,9.6222015 3.0132921,9.5557195 2.46553,9.1826962 1.8410533,8.4115843 1.5036606,7.6916068 1.1483001,6.9332874 1.0766439,6.5838636 1.0782265,5.6170213 1.0797852,4.6647451 1.1516217,4.3020357 1.4790023,3.5934632 L 1.6614013,3.1986845 1.923114,3.5014699 C 2.3518357,3.9974744 3.219923,4.8264728 3.7723102,5.2673992 5.977922,7.0279623 8.5215779,8.0306196 11.457412,8.2967096 l 0.376561,0.03413 -0.04465,-0.2973344 c -0.08567,-0.5705296 -0.04679,-1.5830801 0.07906,-2.0590108 0.494875,-1.8715282 2.002186,-3.2661651 3.922677,-3.6294503 0.526925,-0.099675 1.631605,-0.035666 2.172598,0.125887 0.767432,0.2291727 1.404637,0.5894063 1.938549,1.0959262 l 0.293697,0.2786293 0.59992,-0.1554472 c 0.676875,-0.1753876 1.475038,-0.4790258 2.04692,-0.7786924 0.212114,-0.1111483 0.396595,-0.1911556 0.409956,-0.1777939 0.04741,0.047405 -0.448513,0.9736551 -0.696287,1.30049 -0.296199,0.3907106 -0.818696,0.8907797 -1.150867,1.1014646 -0.129723,0.08228 -0.2367,0.1671048 -0.237725,0.1885005 -0.0045,0.094592 1.396277,-0.2077914 2.104319,-0.4542444 0.280281,-0.09756 0.521266,-0.165718 0.535521,-0.1514628 0.07401,0.074011 -0.970113,1.2734353 -1.506736,1.7308425 -0.216999,0.1849657 -0.479876,0.4008529 -0.584172,0.4797493 l -0.189628,0.1434481 -0.0019,0.6711856 c -0.01284,4.6295385 -2.426789,9.1795945 -6.206119,11.6979135 -2.362985,1.574552 -5.184891,2.360141 -8.1702128,2.2745 z"
     id="path3605" />
</svg>
